<?xml version="1.0" encoding="utf-8"?>
<!-- Generator: Adobe Illustrator 25.0.0, SVG Export Plug-In . SVG Version: 6.00 Build 0)  -->
<svg version="1.1" id="Слой_1" xmlns="http://www.w3.org/2000/svg" xmlns:xlink="http://www.w3.org/1999/xlink" x="0px" y="0px"
	 viewBox="0 0 95.99 23.75" style="enable-background:new 0 0 95.99 23.75;" xml:space="preserve">
<style type="text/css">
	.st0{fill:#FFFFFF;}
</style>
<g>
	<g>
		<g>
			<defs>
				<polyline id="SVGID_1_" points="42.73,8.92 42.73,8.92 36.97,0.85 31.37,0.85 31.37,5.24 35.26,5.24 40.31,12.3 40.31,12.3 
					35.26,19.37 31.37,19.37 31.37,23.75 36.97,23.75 42.73,15.69 42.73,15.69 45.15,12.3 45.15,12.3 42.73,8.92 				"/>
			</defs>
			<use xlink:href="#SVGID_1_"  style="overflow:visible;fill:#FFFFFF;"/>
			<clipPath id="SVGID_2_">
				<use xlink:href="#SVGID_1_"  style="overflow:visible;"/>
			</clipPath>
		</g>
	</g>
	<g>
		<g>
			<defs>
				<polyline id="SVGID_3_" points="48.42,0.85 45.28,5.24 43.61,7.7 46.05,11.11 50.35,5.23 54,5.23 54,0.85 				"/>
			</defs>
			<use xlink:href="#SVGID_3_"  style="overflow:visible;fill:#FFFFFF;"/>
			<clipPath id="SVGID_4_">
				<use xlink:href="#SVGID_3_"  style="overflow:visible;"/>
			</clipPath>
		</g>
	</g>
	<path class="st0" d="M12.46,6.74c-0.59-0.8-1.37-1.39-2.32-1.79c-0.96-0.4-2.11-0.6-3.46-0.6c-0.85,0-1.73,0.09-2.64,0.28
		C3.13,4.82,2.18,5.11,1.19,5.48v2.68c0.88-0.5,1.79-0.89,2.72-1.15c0.93-0.26,1.85-0.39,2.77-0.39c1.43,0,2.46,0.29,3.12,0.88
		c0.65,0.59,0.98,1.53,0.99,2.83v0.42h-3.6c-2.36,0-4.15,0.47-5.37,1.41C0.61,13.11,0,14.49,0,16.3c0,1.57,0.5,2.83,1.49,3.76
		C2.48,21,3.8,21.47,5.46,21.47c1.24,0,2.3-0.23,3.17-0.69c0.87-0.46,1.59-1.18,2.16-2.15l-0.01,2.89h2.68l0.02-9.78
		c0-1.43-0.08-2.5-0.23-3.21C13.09,7.82,12.83,7.22,12.46,6.74z M10.79,13.45c-0.01,1.81-0.44,3.22-1.28,4.24
		c-0.84,1.02-2,1.54-3.48,1.54c-1.05,0-1.87-0.27-2.46-0.82c-0.59-0.54-0.89-1.3-0.89-2.29c0-1.09,0.4-1.91,1.19-2.45
		c0.79-0.55,1.97-0.82,3.53-0.82h0.89h2.5V13.45z"/>
	<polygon class="st0" points="28.9,5.23 25.65,5.24 18.6,12.09 18.59,0.83 15.84,0.84 15.83,21.55 18.58,21.55 18.6,15.09 
		20.59,13.21 26.57,21.55 29.84,21.55 22.47,11.47 	"/>
	<path class="st0" d="M62.44,18.71c-0.46-0.48-0.68-1.32-0.68-2.52L61.74,7.3h6.11V5.23h-6.1l-0.01-4.4h-2.66l-0.01,4.4h-4.36V7.3
		h4.37l-0.01,0.01l0,8.88c0,1.97,0.41,3.36,1.24,4.16c0.82,0.81,2.24,1.21,4.25,1.21h3.28v-2.14h-3.01
		C63.69,19.42,62.89,19.18,62.44,18.71z"/>
	<path class="st0" d="M75.22,4.33c-2.33,0-4.19,0.78-5.59,2.33c-1.4,1.55-2.1,3.63-2.1,6.23c0,2.67,0.71,4.76,2.14,6.28
		c1.43,1.52,3.41,2.28,5.94,2.28c0.88,0,1.8-0.1,2.74-0.31c0.95-0.21,1.93-0.52,2.95-0.94v-2.66c-1.06,0.55-2.05,0.97-2.98,1.24
		c-0.93,0.27-1.82,0.41-2.68,0.41c-1.69,0-3-0.48-3.92-1.46c-0.93-0.97-1.35-2.57-1.27-4.79v-0.09h11.6v-1.31
		c-0.08-1.99-0.72-3.69-1.92-5.1C78.93,5.03,77.29,4.33,75.22,4.33z M70.54,10.76c0.08-1.07,0.53-2.03,1.37-2.88
		c0.84-0.85,1.9-1.28,3.19-1.28c1.32,0,2.33,0.41,3.03,1.23c0.7,0.82,1.11,1.79,1.23,2.92L70.54,10.76z"/>
	<path class="st0" d="M91.43,6.69c0.9,0,1.71,0.14,2.42,0.42c0.71,0.28,1.42,0.74,2.13,1.37V5.67c-0.76-0.43-1.51-0.74-2.26-0.95
		c-0.75-0.2-1.51-0.31-2.3-0.31c-2.52,0-4.5,0.76-5.92,2.27c-1.42,1.51-2.13,3.61-2.13,6.29c0,2.68,0.71,4.77,2.13,6.29
		c1.42,1.51,3.39,2.27,5.92,2.27c0.8,0,1.57-0.1,2.34-0.31c0.76-0.21,1.5-0.52,2.22-0.94v-2.78c-0.63,0.6-1.32,1.05-2.05,1.33
		c-0.74,0.29-1.57,0.43-2.5,0.43c-1.67,0-2.96-0.55-3.87-1.64c-0.91-1.09-1.36-2.64-1.36-4.65c0-2.02,0.45-3.57,1.35-4.66
		C88.46,7.23,89.75,6.69,91.43,6.69z"/>
</g>
</svg>
