<?xml version="1.0" encoding="utf-8"?>
<!-- Generator: Adobe Illustrator 25.0.0, SVG Export Plug-In . SVG Version: 6.00 Build 0)  -->
<svg version="1.1" id="Layer_1" xmlns="http://www.w3.org/2000/svg" xmlns:xlink="http://www.w3.org/1999/xlink" x="0px" y="0px"
	 viewBox="0 0 252 252" style="enable-background:new 0 0 252 252;" xml:space="preserve">
<style type="text/css">
	.st0{fill:#FFFFFF;}
	.st1{fill:none;stroke:#FFFFFF;stroke-width:2;stroke-miterlimit:10;}
	.st2{fill:none;stroke:#FFFFFF;stroke-width:2;stroke-miterlimit:10;stroke-dasharray:6.79,6.79;}
</style>
<g id="Layer_2_1_">
	<polygon class="st0" points="77,100.6 44.6,100.6 28.4,128.6 44.6,156.7 77,156.7 93.2,128.6 	"/>
	<polyline class="st1" points="144.7,105.8 141.7,100.6 135.7,100.6 	"/>
	<line class="st2" x1="128.9" y1="100.6" x2="118.7" y2="100.6"/>
	<polyline class="st1" points="115.3,100.6 109.3,100.6 106.3,105.8 	"/>
	<line class="st2" x1="102.9" y1="111.7" x2="97.8" y2="120.5"/>
	<polyline class="st1" points="96.2,123.4 93.2,128.6 96.2,133.8 	"/>
	<line class="st2" x1="99.6" y1="139.7" x2="104.7" y2="148.5"/>
	<polyline class="st1" points="106.3,151.5 109.3,156.7 115.3,156.7 	"/>
	<line class="st2" x1="122.1" y1="156.7" x2="132.3" y2="156.7"/>
	<polyline class="st1" points="135.7,156.7 141.7,156.7 144.7,151.5 	"/>
	<line class="st2" x1="148.1" y1="145.6" x2="153.2" y2="136.8"/>
	<polyline class="st1" points="154.9,133.8 157.9,128.6 154.9,123.4 	"/>
	<line class="st2" x1="151.5" y1="117.5" x2="146.4" y2="108.7"/>
	<polyline class="st1" points="209.5,105.8 206.5,100.6 200.5,100.6 	"/>
	<line class="st2" x1="193.7" y1="100.6" x2="183.5" y2="100.6"/>
	<polyline class="st1" points="180.1,100.6 174.1,100.6 171.1,105.8 	"/>
	<line class="st2" x1="167.7" y1="111.7" x2="162.6" y2="120.5"/>
	<polyline class="st1" points="160.9,123.4 157.9,128.6 160.9,133.8 	"/>
	<line class="st2" x1="164.3" y1="139.7" x2="169.4" y2="148.5"/>
	<polyline class="st1" points="171.1,151.5 174.1,156.7 180.1,156.7 	"/>
	<line class="st2" x1="186.9" y1="156.7" x2="197.1" y2="156.7"/>
	<polyline class="st1" points="200.5,156.7 206.5,156.7 209.5,151.5 	"/>
	<line class="st2" x1="212.9" y1="145.6" x2="218" y2="136.8"/>
	<polyline class="st1" points="219.7,133.8 222.7,128.6 219.7,123.4 	"/>
	<line class="st2" x1="216.3" y1="117.5" x2="211.2" y2="108.7"/>
</g>
</svg>
