<?xml version="1.0" encoding="utf-8"?>
<!-- Generator: Adobe Illustrator 25.0.0, SVG Export Plug-In . SVG Version: 6.00 Build 0)  -->
<svg version="1.1" id="Layer_1" xmlns="http://www.w3.org/2000/svg" xmlns:xlink="http://www.w3.org/1999/xlink" x="0px" y="0px"
	 viewBox="0 0 252 252" style="enable-background:new 0 0 252 252;" xml:space="preserve">
<style type="text/css">
	.st0{fill:#FFFFFF;}
	.st1{fill:#231F20;}
</style>
<g id="Layer_2_1_">
	<polygon class="st0" points="195.1,112.4 149.1,112.4 126.2,152.2 149.1,192 195.1,192 218.1,152.2 	"/>
	<polyline class="st0" points="142.1,65.2 157.3,99.3 186.9,99.3 201.8,73.6 	"/>
	<path class="st1" d="M189.8,161c-1,5.4-2.8,9.4-5.5,11.8c-2.7,2.4-6.6,3.6-11.6,3.6c-10.6,0-16.7-5.5-18.4-16.5h-2.9v-5.2h2.4
		c0-0.5-0.1-0.9-0.1-1.4c0-0.9,0-1.6,0.1-2.1h-2.4v-5.1h2.9c1.9-11.1,8-16.6,18.1-16.6c4.9,0,8.8,1.3,11.7,3.8
		c2.9,2.5,4.6,6.2,5.2,11.1l-12.3,0.7c-0.5-3.5-1.9-5.2-4.2-5.2c-1.3-0.1-2.6,0.5-3.4,1.5c-0.9,1.4-1.5,3-1.7,4.7h5.8v5.1h-6.1
		c-0.1,1.1-0.1,2.3,0,3.4h6.1v5.1H168c0.8,4,2.4,6,4.9,6c1.1,0.1,2.2-0.3,3-1.1c0.7-0.7,1.3-2.3,1.8-4.6L189.8,161z"/>
	<path class="st0" d="M35.4,77.1h12.7l13.4,32.5V77.1h8.9v52.2H60.2L44.3,91.6v37.8h-8.9V77.1z"/>
	<path class="st0" d="M115.9,103.2c0,18-6.3,27-19,26.9c-6.3,0-11-2.3-14.2-6.9c-3.2-4.6-4.8-11.3-4.7-20.1c0-17.9,6.3-26.9,19-26.9
		c6.2,0,10.9,2.2,14.1,6.7C114.4,87.5,116,94.3,115.9,103.2z M103.8,103.2c0-7-0.5-11.7-1.6-14.1c-1.2-2.9-4.5-4.3-7.3-3.1
		c-1.4,0.6-2.5,1.7-3.1,3.1c-1.1,2.3-1.7,7-1.7,14s0.6,11.6,1.6,14c1.1,2.9,4.3,4.4,7.2,3.3c1.5-0.6,2.6-1.7,3.2-3.1
		C103.3,115,103.8,110.3,103.8,103.2z"/>
</g>
</svg>
