<svg width="245" height="96" viewBox="0 0 245 96" fill="none" xmlns="http://www.w3.org/2000/svg">
<path d="M68.296 48.6744C68.296 30.586 55.6561 15.917 40.0398 15.917C24.4235 15.917 11.7837 30.586 11.7837 48.6744C11.7837 66.7628 24.4235 81.4318 40.0398 81.4318C55.6561 81.3822 68.296 66.7628 68.296 48.6744Z" fill="#F49500"/>
<path d="M42.9755 13.2408C42.9755 20.278 38.2865 26.0266 32.4559 26.0266C26.666 26.0266 21.9363 20.3275 21.9363 13.2408C21.9363 6.20372 26.6252 0.455078 32.4559 0.455078C38.2457 0.455078 42.9755 6.20372 42.9755 13.2408Z" fill="#FCC000"/>
<path d="M72.1693 24.0939C72.1693 31.131 67.4804 36.8796 61.6497 36.8796C55.8599 36.8796 51.1301 31.1806 51.1301 24.0939C51.1301 17.0568 55.8191 11.3082 61.6497 11.3082C67.4804 11.3082 72.1693 17.0568 72.1693 24.0939Z" fill="#FCC000"/>
<path d="M82.1999 57.7929C82.1999 64.8301 77.5109 70.5787 71.6803 70.5787C65.8904 70.5787 61.1606 64.8796 61.1606 57.7929C61.1606 50.7557 65.8496 45.0071 71.6803 45.0071C77.5109 45.0566 82.1999 50.7557 82.1999 57.7929Z" fill="#FCC000"/>
<path d="M59.9374 82.4725C59.9374 89.5096 55.2484 95.2582 49.4178 95.2582C43.6279 95.2582 38.8982 89.5591 38.8982 82.4725C38.8982 75.4353 43.5872 69.6867 49.4178 69.6867C55.2077 69.6867 59.9374 75.3858 59.9374 82.4725Z" fill="#FCC000"/>
<path d="M29.5202 73.6017C29.5202 80.6388 24.8312 86.3875 19.0006 86.3875C13.2107 86.3875 8.48096 80.6884 8.48096 73.6017C8.48096 66.5646 13.1699 60.8159 19.0006 60.8159C24.7904 60.8159 29.5202 66.5646 29.5202 73.6017Z" fill="#FCC000"/>
<path d="M21.0392 38.7628C21.0392 45.8 16.3502 51.5486 10.5196 51.5486C4.72974 51.5486 0 45.8495 0 38.7628C0 31.7257 4.68897 25.977 10.5196 25.977C16.3095 25.977 21.0392 31.7257 21.0392 38.7628Z" fill="#FCC000"/>
<path d="M42.1601 41.1912L41.3854 37.9204L39.7544 41.6868L33.9238 17.2054L36.8595 19.2868L36.1256 16.1647L32.0482 13.439L29.7649 18.3948L30.5396 21.5169L32.089 17.8496L37.9604 42.331L34.9431 40.2001L35.7178 43.4709L39.836 46.147L42.1601 41.1912Z" fill="#03A239"/>
<path d="M47.2158 47.1876L49.0099 45.1558L45.748 44.8584L59.4479 29.4461V33.3116L61.1604 31.3788L61.0789 25.9771L56.6753 25.4815L54.9628 27.4638L58.1432 27.7116L44.4432 43.1735L44.484 39.1593L42.6492 41.2407L42.7715 46.6425L47.2158 47.1876Z" fill="#03A239"/>
<path d="M24.5459 73.6017L26.3807 71.3716L23.0373 71.2725L36.778 54.8195L36.8188 58.7841L38.572 56.7027L38.4497 51.2019L33.9238 50.9541L32.2113 53.0355L35.4325 53.1346L21.6917 69.6371L21.651 65.5734L19.8162 67.754L20.02 73.2548L24.5459 73.6017Z" fill="#03A239"/>
<path d="M35.3914 43.2726L32.7819 42.2815L34.4536 45.9487L14.76 38.6142L17.7364 36.731L15.2492 35.7894L11.1719 38.4655L13.3329 43.4708L15.8201 44.4124L14.2299 40.8443L33.8828 48.1788L30.8248 50.062L33.4343 51.0531L37.5116 48.3274L35.3914 43.2726Z" fill="#03A239"/>
<path d="M51.3749 76.3273L50.5595 73.4035L49.0101 76.9716L43.0163 55.0673L45.952 56.7027L45.1773 53.9275L41.0592 51.7469L38.8982 56.4549L39.6729 59.2301L41.1815 55.8106L47.216 77.715L44.1988 75.9805L45.0142 78.9043L49.1324 81.0848L51.3749 76.3273Z" fill="#03A239"/>
<path d="M65.9309 53.3823L63.4845 52.4902L64.9931 56.1079L46.7265 49.6655L49.4991 47.6832L47.2158 46.8903L43.3831 49.715L45.381 54.5717L47.6643 55.4141L46.1964 51.8956L64.463 58.2885L61.6089 60.3203L64.0553 61.2123L67.8472 58.2885L65.9309 53.3823Z" fill="#03A239"/>
<path d="M43.9133 65.7221L49.7032 30.6851H62.9138L68.8668 51.7469L81.792 30.6851H95.0435L89.1721 65.7221H81.0173L85.0132 40.9434L69.8861 65.7221H63.4847L56.2677 40.993L52.2719 65.7221H43.9133Z" fill="#1192CF"/>
<path d="M121.587 42.5788C120.445 41.1912 116.45 40.5965 111.801 40.5965C104.544 40.5965 100.956 42.0337 98.7946 44.6602C96.6336 47.2867 95.5735 57.1982 95.5735 58.2885C95.5735 59.3292 95.2473 62.154 96.8375 64.0867C98.4277 66.0194 102.26 66.1681 108.173 66.1681C114.085 66.1681 117.347 64.9292 119.548 63.0955C121.75 61.3115 123.055 51.846 123.3 48.9221C123.503 45.9487 122.729 43.9168 121.587 42.5788ZM115.797 53.6301C115.186 56.2566 114.941 57.3469 114.207 57.9911C113.473 58.6354 109.722 59.0814 108.906 59.0814C108.091 59.0814 104.095 58.9823 103.28 57.9911C102.464 57 103.687 49.6159 104.87 48.823C106.052 48.0301 108.499 47.7823 110.252 47.8319C112.943 47.8814 114.982 47.9806 115.553 48.6744C116.123 49.4673 116.409 51.0035 115.797 53.6301Z" fill="#1192CF"/>
<path d="M149.68 30.6851L147.437 44.6107C146.377 41.5381 144.379 40.5965 140.098 40.5965C132.84 40.5965 131.576 42.0337 129.415 44.6602C127.254 47.2868 126.194 57.1982 126.194 58.2885C126.194 59.3292 125.868 62.154 127.458 64.0867C129.049 66.0194 130.312 66.1681 136.062 66.1681C141.607 66.1681 143.605 63.8885 144.583 62.3522L144.053 65.7221H151.311L156.938 30.6851H149.68ZM144.379 58.0407C143.645 58.6849 139.894 59.131 139.038 59.131C138.182 59.131 134.227 59.0318 133.411 58.0407C132.596 57.0496 133.819 49.6655 135.001 48.8726C136.184 48.0797 138.63 47.8319 140.384 47.8814C143.075 47.931 145.113 48.0301 145.725 48.7239C146.092 49.1699 146.337 50.0124 146.296 51.2513L145.806 54.1752C145.317 56.4549 145.073 57.446 144.379 58.0407Z" fill="#1192CF"/>
<path d="M183.644 42.0832C182.747 41.1416 180.464 40.5965 176.142 40.5965C170.719 40.5965 168.476 41.9345 166.764 44.7593L169.007 30.7346H161.912L156.204 65.7221H163.421L163.991 62.1539C164.848 64.5823 166.152 66.1681 172.146 66.1681C178.058 66.1681 179.648 65.8212 181.524 63.492C183.522 61.0637 185.071 51.8956 185.275 48.9221C185.479 45.9982 185.153 43.6195 183.644 42.0832ZM177.977 53.6301C177.365 56.2566 177.12 57.3469 176.387 57.9911C175.653 58.6354 171.901 59.0814 171.086 59.0814C170.271 59.0814 166.275 58.9823 165.459 57.9911C164.644 57 165.867 49.6159 167.049 48.823C168.232 48.0301 170.678 47.7823 172.432 47.8319C175.123 47.8814 177.161 47.9805 177.732 48.6743C178.344 49.4673 178.588 51.0035 177.977 53.6301Z" fill="#1192CF"/>
<path d="M209.699 40.8939H209.413C209.413 40.8939 207.497 54.5221 205.744 56.6531C203.99 58.7841 201.422 58.9327 200.525 58.9327C199.668 58.9327 197.181 58.4867 196.284 57.3965C195.183 56.0089 197.589 43.1735 198.037 40.8939H190.984C190.984 40.8939 188.129 56.6035 188.129 59.0318C188.129 60.9646 188.292 64.5327 192.696 65.7716C193.715 66.069 194.939 66.2177 196.447 66.2177C197.63 66.2177 198.731 66.069 199.709 65.7716C203.134 64.7805 205.295 62.4017 206.478 60.6177L205.662 65.7716H212.39L216.386 40.9434H209.699V40.8939Z" fill="#1192CF"/>
<path d="M237.996 48.6248H244.56C244.56 48.6248 244.683 46.692 244.683 45.8991C244.683 45.0566 244.805 43.9664 243.419 42.2814C242.032 40.5965 234.53 40.646 233.266 40.646C232.002 40.646 225.193 40.4973 223.276 42.4301C221.645 44.0159 220.3 46.0973 220.3 50.161C220.3 54.2743 222.542 55.8602 226.987 55.8602H234.938C236.039 55.8602 237.425 56.2566 237.425 57.4955C237.425 58.7345 236.65 60.4194 233.878 60.4194H228.618C227.354 60.4194 225.07 60.1716 225.07 58.4371V57.6442H218.506C218.506 57.6442 218.18 59.0318 218.18 60.2212C218.18 61.4106 218.343 62.9469 219.444 64.2849C220.545 65.623 225.152 66.2177 229.882 66.2177C234.611 66.2177 239.708 65.9699 241.421 63.8389C243.174 61.7079 243.949 57.7433 243.949 55.6619C243.949 53.5805 243.378 52.5894 242.807 51.8956C242.277 51.2513 240.646 50.0619 233.429 50.0619C226.987 50.0619 226.783 49.3186 226.783 48.5752C226.783 47.9805 226.864 46.4938 231.961 46.4938C237.058 46.4442 237.996 46.7416 237.996 48.6248Z" fill="#1192CF"/>
</svg>
