<?xml version="1.0" encoding="utf-8"?>
<!-- Generator: Adobe Illustrator 25.0.0, SVG Export Plug-In . SVG Version: 6.00 Build 0)  -->
<svg version="1.1" id="Layer_1" xmlns="http://www.w3.org/2000/svg" xmlns:xlink="http://www.w3.org/1999/xlink" x="0px" y="0px"
	 viewBox="0 0 260 260" style="enable-background:new 0 0 260 260;" xml:space="preserve">
<style type="text/css">
	.st0{fill:#FFFFFF;}
	.st1{fill:none;stroke:#FFFFFF;stroke-width:5;stroke-miterlimit:10;}
	.st2{fill:none;}
</style>
<g>
	<path class="st0" d="M68.74,155.4c-10.49,0-19.02-8.53-19.02-19.02v-14.27c0-10.49,8.53-19.02,19.02-19.02h121.35
		c10.49,0,19.02,8.53,19.02,19.02v14.27c0,10.49-8.53,19.02-19.02,19.02H68.74z M186.79,123.1c-3.76,0-6.83,3.06-6.83,6.83
		c0,3.76,3.06,6.83,6.83,6.83s6.83-3.06,6.83-6.83C193.62,126.16,190.56,123.1,186.79,123.1z M169.17,123.1
		c-3.76,0-6.83,3.06-6.83,6.83c0,3.76,3.06,6.83,6.83,6.83s6.83-3.06,6.83-6.83C176,126.16,172.94,123.1,169.17,123.1z
		 M151.55,123.1c-3.76,0-6.83,3.06-6.83,6.83c0,3.76,3.06,6.83,6.83,6.83s6.83-3.06,6.83-6.83
		C158.38,126.16,155.31,123.1,151.55,123.1z"/>
	<path class="st0" d="M190.09,103.59c10.21,0,18.52,8.31,18.52,18.52v14.27c0,10.21-8.31,18.52-18.52,18.52H68.74
		c-10.21,0-18.52-8.31-18.52-18.52v-14.27c0-10.21,8.31-18.52,18.52-18.52H190.09 M186.79,137.25c4.04,0,7.33-3.29,7.33-7.33
		s-3.29-7.33-7.33-7.33c-4.04,0-7.33,3.29-7.33,7.33S182.75,137.25,186.79,137.25 M169.17,137.25c4.04,0,7.33-3.29,7.33-7.33
		s-3.29-7.33-7.33-7.33s-7.33,3.29-7.33,7.33S165.13,137.25,169.17,137.25 M151.55,137.25c4.04,0,7.33-3.29,7.33-7.33
		s-3.29-7.33-7.33-7.33s-7.33,3.29-7.33,7.33S147.51,137.25,151.55,137.25 M190.09,102.59H68.74c-10.78,0-19.52,8.74-19.52,19.52
		v14.27c0,10.78,8.74,19.52,19.52,19.52h121.35c10.78,0,19.52-8.74,19.52-19.52v-14.27C209.61,111.33,200.87,102.59,190.09,102.59
		L190.09,102.59z M186.79,136.25c-3.49,0-6.33-2.83-6.33-6.33c0-3.49,2.83-6.33,6.33-6.33c3.49,0,6.33,2.83,6.33,6.33
		C193.12,133.42,190.29,136.25,186.79,136.25L186.79,136.25z M169.17,136.25c-3.49,0-6.33-2.83-6.33-6.33
		c0-3.49,2.83-6.33,6.33-6.33c3.49,0,6.33,2.83,6.33,6.33C175.5,133.42,172.67,136.25,169.17,136.25L169.17,136.25z M151.55,136.25
		c-3.49,0-6.33-2.83-6.33-6.33c0-3.49,2.83-6.33,6.33-6.33c3.49,0,6.33,2.83,6.33,6.33C157.88,133.42,155.04,136.25,151.55,136.25
		L151.55,136.25z"/>
</g>
<line class="st1" x1="129.19" y1="155.45" x2="129.19" y2="197.47"/>
<circle class="st1" cx="129.1" cy="210.34" r="13.55"/>
<circle class="st1" cx="76.6" cy="199.14" r="13.55"/>
<polyline class="st1" points="101.72,155.77 101.61,174.39 85.8,190.58 "/>
<circle class="st1" cx="181.96" cy="199.59" r="13.55"/>
<polyline class="st1" points="157.11,156.07 157.11,174.68 172.81,190.97 "/>
<line class="st1" x1="129.03" y1="102.54" x2="129.03" y2="60.52"/>
<circle class="st1" cx="128.94" cy="47.64" r="13.55"/>
<circle class="st1" cx="76.44" cy="59.74" r="13.55"/>
<polyline class="st1" points="101.56,103.12 101.45,84.5 85.64,68.31 "/>
<circle class="st1" cx="181.8" cy="59.3" r="13.55"/>
<polyline class="st1" points="156.95,102.82 156.95,84.2 172.65,67.92 "/>
<circle class="st2" cx="130.29" cy="129.47" r="125"/>
</svg>
