<?xml version="1.0" encoding="utf-8"?>
<!-- Generator: Adobe Illustrator 25.0.0, SVG Export Plug-In . SVG Version: 6.00 Build 0)  -->
<svg version="1.1" id="Layer_1" xmlns="http://www.w3.org/2000/svg" xmlns:xlink="http://www.w3.org/1999/xlink" x="0px" y="0px"
	 viewBox="0 0 260 260" style="enable-background:new 0 0 260 260;" xml:space="preserve">
<style type="text/css">
	.st0{fill:none;stroke:#FFFFFF;stroke-miterlimit:10;}
	.st1{fill:#FFFFFF;}
	.st2{fill:none;stroke:#FFFFFF;stroke-width:3;stroke-linejoin:round;stroke-miterlimit:10;}
</style>
<g>
	<path class="st0" d="M109.36,171.85H65.5c-7.6,0-13.75-6.16-13.75-13.75v-43.86c0-7.6,6.16-13.75,13.75-13.75h43.86
		c7.6,0,13.75,6.16,13.75,13.75v43.86C123.12,165.69,116.96,171.85,109.36,171.85z"/>
	<path class="st1" d="M102.2,153.29H72.67c-1.7,0-3.08-1.38-3.08-3.08v-3.7c0-1.7,1.38-3.08,3.08-3.08h29.53
		c1.7,0,3.08,1.38,3.08,3.08v3.7C105.27,151.91,103.9,153.29,102.2,153.29z"/>
	<path class="st1" d="M91.08,159.7h-7.36c-1.51,0-2.74-1.23-2.74-2.74v-4.03c0-1.51,1.23-2.74,2.74-2.74h7.36
		c1.51,0,2.74,1.23,2.74,2.74v4.03C93.82,158.47,92.59,159.7,91.08,159.7z"/>
	<path class="st1" d="M108.36,112.69H66.61c-1.83,0-3.32,1.48-3.32,3.32v27.43c0,1.83,1.48,3.32,3.32,3.32h41.75
		c1.83,0,3.32-1.48,3.32-3.32v-27.43C111.67,114.18,110.19,112.69,108.36,112.69z M73.96,128h-4.31v-9.86h4.31V128z M81.32,128
		h-4.31v-9.86h4.31V128z M89.48,128h-4.31v-9.86h4.31V128z M97.13,128h-4.31v-9.86h4.31V128z M105.29,128h-4.31v-9.86h4.31V128z"/>
	<path class="st0" d="M195.39,171.85h-43.86c-7.6,0-13.75-6.16-13.75-13.75v-43.86c0-7.6,6.16-13.75,13.75-13.75h43.86
		c7.6,0,13.75,6.16,13.75,13.75v43.86C209.14,165.69,202.98,171.85,195.39,171.85z"/>
	<path class="st1" d="M188.22,153.29h-29.53c-1.7,0-3.08-1.38-3.08-3.08v-3.7c0-1.7,1.38-3.08,3.08-3.08h29.53
		c1.7,0,3.08,1.38,3.08,3.08v3.7C191.3,151.91,189.92,153.29,188.22,153.29z"/>
	<path class="st1" d="M177.1,159.7h-7.36c-1.51,0-2.74-1.23-2.74-2.74v-4.03c0-1.51,1.23-2.74,2.74-2.74h7.36
		c1.51,0,2.74,1.23,2.74,2.74v4.03C179.84,158.47,178.61,159.7,177.1,159.7z"/>
	<path class="st1" d="M194.38,112.69h-41.75c-1.83,0-3.32,1.48-3.32,3.32v27.43c0,1.83,1.48,3.32,3.32,3.32h41.75
		c1.83,0,3.32-1.48,3.32-3.32v-27.43C197.7,114.18,196.21,112.69,194.38,112.69z M159.98,128h-4.31v-9.86h4.31V128z M167.34,128
		h-4.31v-9.86h4.31V128z M175.5,128h-4.31v-9.86h4.31V128z M183.16,128h-4.31v-9.86h4.31V128z M191.32,128h-4.31v-9.86h4.31V128z"/>
</g>
<path class="st2" d="M87.33,100.29v-8.07c0-2.79,3.76-5.04,8.4-5.04h69.22c4.64,0,8.4,2.26,8.4,5.04v8.07"/>
</svg>
