<?xml version="1.0" encoding="utf-8"?>
<!-- Generator: Adobe Illustrator 25.0.0, SVG Export Plug-In . SVG Version: 6.00 Build 0)  -->
<svg version="1.1" id="Layer_1" xmlns="http://www.w3.org/2000/svg" xmlns:xlink="http://www.w3.org/1999/xlink" x="0px" y="0px"
	 viewBox="0 0 260 260" style="enable-background:new 0 0 260 260;" xml:space="preserve">
<style type="text/css">
	.st0{fill:none;stroke:#FFFFFF;stroke-width:2;stroke-miterlimit:10;}
	.st1{fill:#FFFFFF;}
	.st2{fill:none;stroke:#FFFFFF;stroke-width:3;stroke-linejoin:round;stroke-miterlimit:10;}
</style>
<g id="XMLID_1_">
	<g>
	</g>
	<g>
		<path class="st0" d="M87.59,173.76v2.48c0,7.75-6.29,14.05-14.05,14.05H45.56c-7.75,0-14.05-6.29-14.05-14.05V88.24
			c0-7.75,6.29-14.05,14.05-14.05h27.98c7.75,0,14.05,6.29,14.05,14.05v29.17V173.76z"/>
		<polyline class="st0" points="87.59,117.41 79.82,117.41 79.82,173.61 87.59,173.76 		"/>
	</g>
</g>
<g id="XMLID_4_">
	<g>
		<path class="st1" d="M157.63,173.87v2.48c0,7.75-6.29,14.05-14.05,14.05H115.6c-7.75,0-14.05-6.29-14.05-14.05V88.34
			c0-7.77,6.29-14.05,14.05-14.05h27.98c7.75,0,14.05,6.28,14.05,14.05v29.17h-7.77v56.21L157.63,173.87z"/>
	</g>
	<g>
		<path class="st0" d="M157.63,173.87v2.48c0,7.75-6.29,14.05-14.05,14.05H115.6c-7.75,0-14.05-6.29-14.05-14.05V88.34
			c0-7.77,6.29-14.05,14.05-14.05h27.98c7.75,0,14.05,6.28,14.05,14.05v29.17V173.87z"/>
		<polyline class="st0" points="157.63,117.51 149.86,117.51 149.86,173.72 157.63,173.87 		"/>
	</g>
</g>
<g id="XMLID_2_">
	<g>
	</g>
	<g>
		<path class="st0" d="M227.42,173.88v2.48c0,7.77-6.29,14.05-14.05,14.05H185.4c-7.77,0-14.05-6.28-14.05-14.05V88.36
			c0-7.75,6.28-14.05,14.05-14.05h27.98c7.75,0,14.05,6.29,14.05,14.05v29.18V173.88z"/>
		<polyline class="st0" points="227.42,117.54 219.66,117.54 219.66,173.73 227.42,173.88 		"/>
	</g>
</g>
<path class="st2" d="M138.61,73.16v-9.49c0-3.28,2.66-5.93,5.93-5.93h48.9c3.28,0,5.93,2.66,5.93,5.93v9.49"/>
<path class="st2" d="M59.76,73.16v-9.49c0-3.28,2.66-5.93,5.93-5.93h48.9c3.28,0,5.93,2.66,5.93,5.93v9.49"/>
</svg>
