<?xml version="1.0" encoding="utf-8"?>
<!-- Generator: Adobe Illustrator 25.0.0, SVG Export Plug-In . SVG Version: 6.00 Build 0)  -->
<svg version="1.1" id="Layer_1" xmlns="http://www.w3.org/2000/svg" xmlns:xlink="http://www.w3.org/1999/xlink" x="0px" y="0px"
	 viewBox="0 0 260 260" style="enable-background:new 0 0 260 260;" xml:space="preserve">
<style type="text/css">
	.st0{fill:none;stroke:#FFFFFF;stroke-width:2;stroke-miterlimit:10;}
	.st1{fill:#FFFFFF;}
	.st2{fill:none;}
</style>
<g>
	<path class="st0" d="M143.52,187.48h-27.98c-7.76,0-14.05-6.29-14.05-14.05V85.42c0-7.76,6.29-14.05,14.05-14.05h27.98
		c7.76,0,14.05,6.29,14.05,14.05v88.01C157.56,181.19,151.27,187.48,143.52,187.48z"/>
	<polyline class="st0" points="157.56,114.59 149.8,114.59 149.8,170.79 157.56,170.95 	"/>
</g>
<g>
	<g>
		<line class="st0" x1="66.66" y1="36.6" x2="92.79" y2="62.74"/>
		<g>
			<polygon class="st1" points="88.65,63.52 100.31,70.26 93.58,58.59 			"/>
		</g>
	</g>
</g>
<g>
	<g>
		<line class="st0" x1="66.78" y1="222.21" x2="92.79" y2="196.19"/>
		<g>
			<polygon class="st1" points="93.58,200.34 100.31,188.68 88.65,195.41 			"/>
		</g>
	</g>
</g>
<g>
	<g>
		<line class="st0" x1="192.25" y1="222.15" x2="166.27" y2="196.16"/>
		<g>
			<polygon class="st1" points="170.41,195.38 158.75,188.64 165.48,200.31 			"/>
		</g>
	</g>
</g>
<g>
	<g>
		<line class="st0" x1="192.29" y1="36.69" x2="166.27" y2="62.71"/>
		<g>
			<polygon class="st1" points="165.48,58.56 158.75,70.22 170.41,63.49 			"/>
		</g>
	</g>
</g>
<circle class="st2" cx="129.59" cy="129.82" r="125"/>
<g>
	<g>
		<line class="st0" x1="52.88" y1="129.42" x2="89.68" y2="129.42"/>
		<g>
			<polygon class="st1" points="87.3,132.91 100.31,129.43 87.3,125.94 			"/>
		</g>
	</g>
</g>
<g>
	<g>
		<line class="st0" x1="206.22" y1="129.42" x2="169.43" y2="129.42"/>
		<g>
			<polygon class="st1" points="171.8,125.94 158.8,129.42 171.8,132.91 			"/>
		</g>
	</g>
</g>
</svg>
