<?xml version="1.0" encoding="utf-8"?>
<!-- Generator: Adobe Illustrator 25.0.0, SVG Export Plug-In . SVG Version: 6.00 Build 0)  -->
<svg version="1.1" id="Layer_1" xmlns="http://www.w3.org/2000/svg" xmlns:xlink="http://www.w3.org/1999/xlink" x="0px" y="0px"
	 viewBox="0 0 260 260" style="enable-background:new 0 0 260 260;" xml:space="preserve">
<style type="text/css">
	.st0{fill:none;}
	.st1{fill:#FFFFFF;}
</style>
<circle class="st0" cx="129.59" cy="129.82" r="125"/>
<path class="st1" d="M141.1,135.38c0,2.56-3.82,2.96-4.5,2.96h-7.37l1.37-5.3h6.42C137.03,133.04,141.1,132.82,141.1,135.38z
	 M160.3,136.6c0,4.65-2.53,17.9-16.49,17.9h-12.95l-1.62,10.92H69.78c-28.61,0-27.03-27.47-27.03-27.47H31.95l5.41-15.39h5.41
	c0,0,5.85-27.4,37.84-27.4h61.71l-2.01,10.81h8.46c4.79,0,12.35,1.62,12.35,12.84c0,7.1-3.68,10.28-3.68,10.28
	S160.3,131.3,160.3,136.6z M85.43,133.6l4.51-20.86H78.97l-4.21,19.56c0,0-0.74,7.56-6.69,7.56c-6.36,0-3.59-8.15-3.59-8.15
	l3.9-18.96H57.41c0,0-4.94,22.83-5.15,23.92c-0.19,1.1-0.19,11.91,14.99,11.91C85.11,148.6,85.43,133.58,85.43,133.6z
	 M118.17,136.58c0-12.43-17.35-9.33-17.35-13.81c0-1.84,1.73-2.86,4.2-2.86c2.47,0,4.51,0.48,4.51,3.67h10.37
	c0,0,1.12-11.42-14.2-11.42c-9.5,0-15.35,5.23-15.35,11.5c0,11.51,17.23,8.96,17.23,13.92c0,2.66-3.25,3.44-5.22,3.44
	c-4.73,0-5-3.19-5-4.94h-10.6c-0.32,8.74,6.73,12.6,14.97,12.6C113.76,148.66,118.17,141.92,118.17,136.58L118.17,136.58z
	 M153.37,136.23c0-5.98-5.15-7.16-5.15-7.16s6.52-1.16,6.52-8.72c0-6.69-6.8-7.35-10.05-7.35H125.5l-7.6,34.72h21.98
	C141.1,147.71,153.37,147.56,153.37,136.23z M139.05,122.18h-6.31l-1.08,5.19h6.84c0.55,0,3.25-0.39,3.25-2.89
	S139.05,122.18,139.05,122.18z"/>
<polygon class="st1" points="207.79,92.88 173.33,136.11 192.13,136.11 181,167.19 215.44,123.96 196.67,123.96 "/>
</svg>
