<?xml version="1.0" encoding="utf-8"?>
<!-- Generator: Adobe Illustrator 25.0.0, SVG Export Plug-In . SVG Version: 6.00 Build 0)  -->
<svg version="1.1" id="Layer_1" xmlns="http://www.w3.org/2000/svg" xmlns:xlink="http://www.w3.org/1999/xlink" x="0px" y="0px"
	 viewBox="0 0 260 260" style="enable-background:new 0 0 260 260;" xml:space="preserve">
<style type="text/css">
	.st0{fill:none;}
	.st1{fill:#FFFFFF;}
	.st2{fill:none;stroke:#FFFFFF;stroke-width:8;stroke-linecap:round;stroke-miterlimit:10;}
</style>
<g>
	<circle class="st0" cx="129.59" cy="129.82" r="125"/>
	<g>
		
			<rect x="74.33" y="151.17" transform="matrix(0.866 -0.5 0.5 0.866 -79.3797 68.3737)" class="st1" width="27.13" height="62.28"/>
		<path class="st1" d="M94.48,153.43c1.48,3.91,2.62,4.86,12.08,20.92c4.4,7.48,7.94,13.68,10.31,17.85
			c2.47,2.16,7.12,5.55,12.95,5.38c4.63-0.14,7.91-2.57,9.46-3.47c13.31-7.69,26.62-15.37,39.93-23.06c0.41-0.39,3.52-3.48,3.1-8.24
			c-0.4-4.64-3.84-7.14-4.32-7.47c0.4-0.47,4-4.79,2.71-10.68c-1.27-5.79-6.2-8.22-6.78-8.49c0.42-0.46,3.88-4.42,2.88-10.01
			c-1.03-5.75-5.9-8.26-6.42-8.52c9.45-5.46,18.9-10.91,28.35-16.37c3.74-3.63,5.29-8.83,3.85-13.28
			c-1.96-6.06-9.23-10.04-16.74-8.1c-20.74,11.98-41.49,23.95-62.23,35.93c-0.29,0.15-0.89,0.4-1.56,0.25
			c-1.07-0.25-1.91-1.46-1.91-2.97c0.06-12.21,0.11-24.43,0.17-36.64c-0.83-5.85-5.64-10.32-11.36-10.69
			c-5.36-0.35-10.42,2.97-12.33,8.14c-0.23,18.19-1.4,32.82-2.43,42.91C92.31,135.15,90.43,142.72,94.48,153.43z"/>
		<line class="st2" x1="126.45" y1="42.54" x2="132.53" y2="76.98"/>
		<line class="st2" x1="156.19" y1="42.24" x2="147.14" y2="76.01"/>
		<line class="st2" x1="181.98" y1="56.25" x2="159.5" y2="83.03"/>
	</g>
</g>
</svg>
