<?xml version="1.0" encoding="utf-8"?>
<!-- Generator: Adobe Illustrator 25.0.0, SVG Export Plug-In . SVG Version: 6.00 Build 0)  -->
<svg version="1.1" id="Layer_1" xmlns="http://www.w3.org/2000/svg" xmlns:xlink="http://www.w3.org/1999/xlink" x="0px" y="0px"
	 viewBox="0 0 260 260" style="enable-background:new 0 0 260 260;" xml:space="preserve">
<style type="text/css">
	.st0{fill:none;}
	.st1{fill:#FFFFFF;}
	.st2{fill:none;stroke:#FFFFFF;stroke-width:3;stroke-linecap:round;stroke-miterlimit:10;}
	.st3{fill:none;stroke:#FFFFFF;stroke-width:3;stroke-miterlimit:10;}
</style>
<circle class="st0" cx="129.59" cy="129.82" r="125"/>
<g>
	<path class="st1" d="M136.06,42.14c-4.03,0-7.29,3.26-7.29,7.28s3.26,7.29,7.29,7.29c40.19,0,72.88,32.69,72.88,72.88
		s-32.7,72.88-72.88,72.88c-40.04,0-72.64-32.48-72.86-72.47h11.32l-19.43-29.16l-19.43,29.16h12.98
		c0.22,48.04,39.35,87.05,87.44,87.05c48.23,0,87.46-39.24,87.46-87.46S184.29,42.15,136.06,42.14z"/>
	<path class="st1" d="M136.07,188.73c32.59,0,59.11-26.53,59.11-59.12c0-32.59-26.53-59.12-59.11-59.12c-1.34,0-2.43,1.1-2.43,2.44
		c0,1.35,1.09,2.43,2.43,2.43c29.91,0,54.25,24.34,54.25,54.25c0,29.93-24.34,54.27-54.25,54.27c-29.92,0-54.26-24.34-54.26-54.26
		c0-1.35-1.09-2.43-2.43-2.43c-1.34,0-2.43,1.09-2.43,2.43C76.95,162.2,103.47,188.73,136.07,188.73z"/>
	<path class="st1" d="M128.78,95.79v38.2l-20.76,20.76c-2.84,2.85-2.84,7.46-0.01,10.32c1.42,1.43,3.29,2.13,5.15,2.13
		c1.86,0,3.73-0.72,5.15-2.13l22.9-22.9c1.37-1.37,2.13-3.21,2.13-5.15V95.79c0-4.03-3.26-7.29-7.29-7.29
		C132.03,88.5,128.78,91.76,128.78,95.79z"/>
</g>
<path class="st2" d="M113.2,79.07c-3.59,10.53-13.57,18.11-25.32,18.11c-11.75,0-21.73-7.58-25.32-18.12"/>
<path class="st2" d="M75.1,79.07c1.83,10.54,6.93,18.12,12.93,18.12c6,0,11.09-7.58,12.93-18.12"/>
<path class="st2" d="M75.09,79c0,0.02,0.01,0.05,0.01,0.07"/>
<path class="st3" d="M109.12,85.56c-6.62-1.17-13.77-1.81-21.23-1.81c-7.46,0-14.61,0.64-21.23,1.81"/>
<g>
	<path class="st1" d="M78.99,65.72l-3.22,9.85h-2.45l-2.17-6.67l-2.24,6.67h-2.43l-3.23-9.85h2.36l2.22,6.92l2.32-6.92h2.11
		l2.25,6.98l2.29-6.98H78.99z"/>
	<path class="st1" d="M95.34,65.72l-3.22,9.85h-2.45l-2.17-6.67l-2.24,6.67h-2.43l-3.23-9.85h2.36l2.22,6.92l2.32-6.92h2.11
		l2.25,6.98l2.29-6.98H95.34z"/>
	<path class="st1" d="M111.7,65.72l-3.22,9.85h-2.45l-2.17-6.67l-2.24,6.67H99.2l-3.23-9.85h2.36l2.22,6.92l2.32-6.92h2.11
		l2.25,6.98l2.29-6.98H111.7z"/>
</g>
<path class="st2" d="M62.78,61.83c3.59-10.53,13.57-18.11,25.32-18.11c11.75,0,21.73,7.58,25.32,18.12"/>
<path class="st2" d="M100.87,61.83c-1.83-10.54-6.93-18.12-12.93-18.12c-6,0-11.09,7.58-12.93,18.12"/>
<path class="st3" d="M66.85,55.34c6.62,1.17,13.77,1.81,21.23,1.81c7.46,0,14.61-0.64,21.23-1.81"/>
</svg>
