<?xml version="1.0" encoding="utf-8"?>
<!-- Generator: Adobe Illustrator 25.0.0, SVG Export Plug-In . SVG Version: 6.00 Build 0)  -->
<svg version="1.1" id="Layer_1" xmlns="http://www.w3.org/2000/svg" xmlns:xlink="http://www.w3.org/1999/xlink" x="0px" y="0px"
	 viewBox="0 0 260 260" style="enable-background:new 0 0 260 260;" xml:space="preserve">
<style type="text/css">
	.st0{fill:none;}
	.st1{fill:#FFFFFF;}
	.st2{fill:none;stroke:#FFFFFF;stroke-width:4;stroke-linecap:round;stroke-miterlimit:10;}
	.st3{fill:none;stroke:#FFFFFF;stroke-miterlimit:10;}
</style>
<path class="st0" d="M237.42,16.38"/>
<g>
	<ellipse class="st1" cx="80.98" cy="131.09" rx="34.18" ry="11.3"/>
	<path class="st1" d="M115.16,156.08c0,6.24-15.3,11.3-34.18,11.3s-34.18-5.06-34.18-11.3v-15.31c0,6.24,15.3,11.3,34.18,11.3
		s34.18-5.06,34.18-11.3V156.08z"/>
	<path class="st1" d="M115.16,179.65c0,6.24-15.3,11.3-34.18,11.3s-34.18-5.06-34.18-11.3v-15.31c0,6.24,15.3,11.3,34.18,11.3
		s34.18-5.06,34.18-11.3V179.65z"/>
	<path class="st1" d="M115.16,203.24c0,6.24-15.3,11.3-34.18,11.3s-34.18-5.06-34.18-11.3v-15.31c0,6.24,15.3,11.3,34.18,11.3
		s34.18-5.06,34.18-11.3V203.24z"/>
</g>
<circle class="st0" cx="129.59" cy="129.82" r="125"/>
<g>
	<g>
		<path class="st2" d="M115.16,77.64c-29.23,0-52.92,12.28-52.92,27.42"/>
		<g>
			<path class="st1" d="M62.24,114.71c-1.69-4.54-4.56-10.18-7.61-13.68l7.61,2.75l7.61-2.75C66.8,104.53,63.92,110.17,62.24,114.71
				z"/>
		</g>
	</g>
</g>
<g>
	<g>
		<path class="st2" d="M209.39,164.33c0,18.88-31.55,34.18-70.46,34.18"/>
		<g>
			<path class="st1" d="M129.27,198.52c4.54-1.69,10.18-4.56,13.68-7.61l-2.75,7.61l2.75,7.61
				C139.45,203.08,133.82,200.2,129.27,198.52z"/>
		</g>
	</g>
</g>
<g id="XMLID_45_">
	<g>
	</g>
	<g>
		<path class="st3" d="M157.95,133.32c-0.53,5.61-5.25,10.01-11.01,10.01h-11.84c-6.1,0-11.05-4.95-11.05-11.05V84.09
			c0-6.1,4.95-11.05,11.05-11.05h11.84c6.1,0,11.05,4.95,11.05,11.05v15.12v33.07C158,132.63,157.98,132.98,157.95,133.32z"/>
		<polyline class="st3" points="158,99.21 153.3,99.21 153.3,133.23 157.95,133.32 158,133.32 		"/>
	</g>
</g>
<g id="XMLID_44_">
	<g>
	</g>
	<g>
		<path class="st3" d="M195.95,133.32c-0.53,5.61-5.25,10.01-11.01,10.01h-11.84c-6.1,0-11.05-4.95-11.05-11.05V84.09
			c0-6.1,4.95-11.05,11.05-11.05h11.84c6.1,0,11.05,4.95,11.05,11.05v15.12v33.07C196,132.63,195.98,132.98,195.95,133.32z"/>
		<polyline class="st3" points="196,99.21 191.3,99.21 191.3,133.23 195.95,133.32 196,133.32 		"/>
	</g>
</g>
<g id="XMLID_16_">
	<g>
	</g>
	<g>
		<path class="st3" d="M233.95,133.32c-0.53,5.61-5.25,10.01-11.01,10.01h-11.84c-6.1,0-11.05-4.95-11.05-11.05V84.09
			c0-6.1,4.95-11.05,11.05-11.05h11.84c6.1,0,11.05,4.95,11.05,11.05v15.12v33.07C234,132.63,233.98,132.98,233.95,133.32z"/>
		<polyline class="st3" points="234,99.21 229.3,99.21 229.3,133.23 233.95,133.32 234,133.32 		"/>
	</g>
</g>
</svg>
