<svg id="Ebene_1" data-name="Ebene 1" xmlns="http://www.w3.org/2000/svg" viewBox="0 0 360.22 84.35"><defs><style>.cls-1{fill:#00a19a;}.cls-2{fill:#e6007e;}.cls-3{fill:#1d1d1b;}.cls-4{fill:none;stroke:#fff;stroke-miterlimit:10;stroke-width:6px;}</style></defs><title>Logo_akYtec</title><polyline class="cls-1" points="160.37 29.49 160.37 29.49 139.31 0.05 118.31 0.05 118.31 15.68 132.32 15.68 151.28 42.19 151.28 42.2 132.31 68.71 118.31 68.71 118.31 84.34 139.23 84.34 160.37 54.9 160.37 54.9 169.45 42.2 169.46 42.19 160.37 29.49"/><polyline class="cls-2" points="181.13 0.05 169.93 15.68 163.68 24.94 172.83 37.74 188.95 15.67 202.1 15.68 202.1 0.05"/><path class="cls-3" d="M82.66,36.63a20.33,20.33,0,0,0-8.72-6.72,33.74,33.74,0,0,0-13-2.24,48.56,48.56,0,0,0-9.92,1.06,69.79,69.79,0,0,0-10.68,3.2V42a45.11,45.11,0,0,1,10.22-4.31A37.89,37.89,0,0,1,61,36.19q8,0,11.69,3.31t3.72,10.63v1.58H62.88q-13.27,0-20.13,5.3c-4.58,3.54-6.86,8.7-6.86,15.52q0,8.85,5.57,14.12t14.92,5.28a25.06,25.06,0,0,0,11.88-2.6,20.79,20.79,0,0,0,8.12-8.06l0,10.86h10l.08-36.7a61.53,61.53,0,0,0-.87-12A17,17,0,0,0,82.66,36.63ZM76.38,61.82Q76.32,72,71.57,77.74T58.51,83.51q-5.91,0-9.23-3.06t-3.34-8.58q0-6.12,4.46-9.2c3-2.07,7.38-3.09,13.24-3.09H76.38Z" transform="translate(-35.89 -14.47)"/><polygon class="cls-3" points="108.46 16.52 96.25 16.53 69.79 42.26 69.75 0 59.44 0.03 59.42 77.77 69.74 77.75 69.79 53.52 77.27 46.47 99.7 77.77 111.99 77.77 84.32 39.91 108.46 16.52"/><path class="cls-3" d="M270.2,81.56c-1.71-1.78-2.57-4.94-2.57-9.45l0-33.36h22.92V31h-22.9l0-16.52h-10l0,16.52H241.21v7.76h16.41l-.05,0V72.11q0,11.1,4.65,15.63t15.95,4.53h12.29v-8H279.16C274.91,84.24,271.91,83.34,270.2,81.56Z" transform="translate(-35.89 -14.47)"/><path class="cls-3" d="M318.17,27.58q-13.11,0-21,8.75t-7.87,23.38q0,15,8,23.58t22.29,8.55a47.34,47.34,0,0,0,10.3-1.18A67,67,0,0,0,341,87.14v-10a62.3,62.3,0,0,1-11.19,4.65,36.26,36.26,0,0,1-10.06,1.52q-9.51,0-14.72-5.46t-4.78-18v-.32h43.54V54.63a30.38,30.38,0,0,0-7.18-19.12Q329.86,27.59,318.17,27.58ZM300.63,51.74a16.94,16.94,0,0,1,5.13-10.82,16,16,0,0,1,12-4.81q7.44,0,11.39,4.62a19.42,19.42,0,0,1,4.62,11Z" transform="translate(-35.89 -14.47)"/><path class="cls-3" d="M379,36.45a24.56,24.56,0,0,1,9.1,1.59,27,27,0,0,1,8,5.13V32.63a37,37,0,0,0-8.47-3.56A32.82,32.82,0,0,0,379,27.93q-14.2,0-22.21,8.52t-8,23.61q0,15.07,8,23.6T379,92.18A33.16,33.16,0,0,0,387.78,91a34.69,34.69,0,0,0,8.33-3.53V77.05a23.58,23.58,0,0,1-7.7,5,25.91,25.91,0,0,1-9.4,1.61q-9.4,0-14.51-6.15t-5.1-17.45q0-11.37,5.07-17.49T379,36.45Z" transform="translate(-35.89 -14.47)"/><path class="cls-4" d="M212.25,105.29" transform="translate(-35.89 -14.47)"/></svg>